<?xml version="1.0" encoding="us-ascii" standalone="no"?><svg xmlns="http://www.w3.org/2000/svg" xmlns:xlink="http://www.w3.org/1999/xlink" contentStyleType="text/css" height="424px" preserveAspectRatio="none" style="width:1229px;height:424px;background:#FFFFFF;" version="1.1" viewBox="0 0 1229 424" width="1229px" zoomAndPan="magnify"><defs/><g><line style="stroke:#181818;stroke-width:0.5;stroke-dasharray:5.0,5.0;" x1="61" x2="61" y1="68.6094" y2="344.4219"/><line style="stroke:#181818;stroke-width:0.5;stroke-dasharray:5.0,5.0;" x1="315" x2="315" y1="68.6094" y2="344.4219"/><line style="stroke:#181818;stroke-width:0.5;stroke-dasharray:5.0,5.0;" x1="528.5" x2="528.5" y1="68.6094" y2="344.4219"/><line style="stroke:#181818;stroke-width:0.5;stroke-dasharray:5.0,5.0;" x1="673.5" x2="673.5" y1="68.6094" y2="344.4219"/><line style="stroke:#181818;stroke-width:0.5;stroke-dasharray:5.0,5.0;" x1="781.5" x2="781.5" y1="68.6094" y2="344.4219"/><line style="stroke:#181818;stroke-width:0.5;stroke-dasharray:5.0,5.0;" x1="1167.5" x2="1167.5" y1="68.6094" y2="344.4219"/><rect fill="#E2E2F0" height="31.6094" rx="2.5" ry="2.5" style="stroke:#181818;stroke-width:0.5;" width="112" x="5" y="36"/><text fill="#000000" font-family="sans-serif" font-size="14" lengthAdjust="spacing" textLength="98" x="12" y="57.5332">Internal Service</text><rect fill="#E2E2F0" height="31.6094" rx="2.5" ry="2.5" style="stroke:#181818;stroke-width:0.5;" width="112" x="5" y="343.4219"/><text fill="#000000" font-family="sans-serif" font-size="14" lengthAdjust="spacing" textLength="98" x="12" y="364.9551">Internal Service</text><rect fill="#E2E2F0" height="31.6094" rx="2.5" ry="2.5" style="stroke:#181818;stroke-width:0.5;" width="118" x="256" y="36"/><text fill="#000000" font-family="sans-serif" font-size="14" lengthAdjust="spacing" textLength="104" x="263" y="57.5332">Device Message</text><rect fill="#E2E2F0" height="31.6094" rx="2.5" ry="2.5" style="stroke:#181818;stroke-width:0.5;" width="118" x="256" y="343.4219"/><text fill="#000000" font-family="sans-serif" font-size="14" lengthAdjust="spacing" textLength="104" x="263" y="364.9551">Device Message</text><text fill="#000000" font-family="sans-serif" font-size="14" lengthAdjust="spacing" textLength="163" x="444.5" y="65.5332">Device Shadow Collection</text><path d="M511,15 C511,5 529,5 529,5 C529,5 547,5 547,15 L547,41 C547,51 529,51 529,51 C529,51 511,51 511,41 L511,15 " fill="#E2E2F0" style="stroke:#181818;stroke-width:1.5;"/><path d="M511,15 C511,25 529,25 529,25 C529,25 547,25 547,15 " fill="none" style="stroke:#181818;stroke-width:1.5;"/><text fill="#000000" font-family="sans-serif" font-size="14" lengthAdjust="spacing" textLength="163" x="444.5" y="357.9551">Device Shadow Collection</text><path d="M511,371.0313 C511,361.0313 529,361.0313 529,361.0313 C529,361.0313 547,361.0313 547,371.0313 L547,397.0313 C547,407.0313 529,407.0313 529,407.0313 C529,407.0313 511,407.0313 511,397.0313 L511,371.0313 " fill="#E2E2F0" style="stroke:#181818;stroke-width:1.5;"/><path d="M511,371.0313 C511,381.0313 529,381.0313 529,381.0313 C529,381.0313 547,381.0313 547,371.0313 " fill="none" style="stroke:#181818;stroke-width:1.5;"/><rect fill="#E2E2F0" height="31.6094" rx="2.5" ry="2.5" style="stroke:#181818;stroke-width:0.5;" width="100" x="623.5" y="36"/><text fill="#000000" font-family="sans-serif" font-size="14" lengthAdjust="spacing" textLength="86" x="630.5" y="57.5332">MQTT Broker</text><rect fill="#E2E2F0" height="31.6094" rx="2.5" ry="2.5" style="stroke:#181818;stroke-width:0.5;" width="100" x="623.5" y="343.4219"/><text fill="#000000" font-family="sans-serif" font-size="14" lengthAdjust="spacing" textLength="86" x="630.5" y="364.9551">MQTT Broker</text><rect fill="#E2E2F0" height="31.6094" rx="2.5" ry="2.5" style="stroke:#181818;stroke-width:0.5;" width="97" x="733.5" y="36"/><text fill="#000000" font-family="sans-serif" font-size="14" lengthAdjust="spacing" textLength="83" x="740.5" y="57.5332">Device Client</text><rect fill="#E2E2F0" height="31.6094" rx="2.5" ry="2.5" style="stroke:#181818;stroke-width:0.5;" width="97" x="733.5" y="343.4219"/><text fill="#000000" font-family="sans-serif" font-size="14" lengthAdjust="spacing" textLength="83" x="740.5" y="364.9551">Device Client</text><rect fill="#E2E2F0" height="31.6094" rx="2.5" ry="2.5" style="stroke:#181818;stroke-width:0.5;" width="111" x="1112.5" y="36"/><text fill="#000000" font-family="sans-serif" font-size="14" lengthAdjust="spacing" textLength="97" x="1119.5" y="57.5332">Device Shadow</text><rect fill="#E2E2F0" height="31.6094" rx="2.5" ry="2.5" style="stroke:#181818;stroke-width:0.5;" width="111" x="1112.5" y="343.4219"/><text fill="#000000" font-family="sans-serif" font-size="14" lengthAdjust="spacing" textLength="97" x="1119.5" y="364.9551">Device Shadow</text><polygon fill="#181818" points="303,96.9609,313,100.9609,303,104.9609,307,100.9609" style="stroke:#181818;stroke-width:1.0;"/><line style="stroke:#181818;stroke-width:1.0;" x1="61" x2="309" y1="100.9609" y2="100.9609"/><text fill="#000000" font-family="sans-serif" font-size="13" lengthAdjust="spacing" textLength="230" x="68" y="96.1045">POST Config (/devices/{deviceId}/config)</text><polygon fill="#181818" points="517,127.3125,527,131.3125,517,135.3125,521,131.3125" style="stroke:#181818;stroke-width:1.0;"/><line style="stroke:#181818;stroke-width:1.0;" x1="315" x2="523" y1="131.3125" y2="131.3125"/><text fill="#000000" font-family="sans-serif" font-size="13" lengthAdjust="spacing" textLength="190" x="322" y="126.4561">Index and Persist the config data</text><polygon fill="#181818" points="661.5,157.6641,671.5,161.6641,661.5,165.6641,665.5,161.6641" style="stroke:#181818;stroke-width:1.0;"/><line style="stroke:#181818;stroke-width:1.0;" x1="315" x2="667.5" y1="161.6641" y2="161.6641"/><text fill="#000000" font-family="sans-serif" font-size="13" lengthAdjust="spacing" textLength="272" x="322" y="156.8076">Publish config to device (publish(config, QoS2))</text><polygon fill="#181818" points="770,188.0156,780,192.0156,770,196.0156,774,192.0156" style="stroke:#181818;stroke-width:1.0;"/><line style="stroke:#181818;stroke-width:1.0;" x1="673.5" x2="776" y1="192.0156" y2="192.0156"/><text fill="#000000" font-family="sans-serif" font-size="13" lengthAdjust="spacing" textLength="81" x="680.5" y="187.1592">Publish config</text><line style="stroke:#181818;stroke-width:1.0;" x1="782" x2="824" y1="222.3672" y2="222.3672"/><line style="stroke:#181818;stroke-width:1.0;" x1="824" x2="824" y1="222.3672" y2="235.3672"/><line style="stroke:#181818;stroke-width:1.0;" x1="783" x2="824" y1="235.3672" y2="235.3672"/><polygon fill="#181818" points="793,231.3672,783,235.3672,793,239.3672,789,235.3672" style="stroke:#181818;stroke-width:1.0;"/><text fill="#000000" font-family="sans-serif" font-size="13" lengthAdjust="spacing" textLength="69" x="789" y="217.5107">Store config</text><polygon fill="#181818" points="1156,261.7188,1166,265.7188,1156,269.7188,1160,265.7188" style="stroke:#181818;stroke-width:1.0;"/><line style="stroke:#181818;stroke-width:1.0;" x1="782" x2="1162" y1="265.7188" y2="265.7188"/><text fill="#000000" font-family="sans-serif" font-size="13" lengthAdjust="spacing" textLength="362" x="789" y="260.8623">Get Config (sinceTimestamp) (/devices/{deviceId}/configuration)</text><polygon fill="#181818" points="540,292.0703,530,296.0703,540,300.0703,536,296.0703" style="stroke:#181818;stroke-width:1.0;"/><line style="stroke:#181818;stroke-width:1.0;" x1="534" x2="1167" y1="296.0703" y2="296.0703"/><text fill="#000000" font-family="sans-serif" font-size="13" lengthAdjust="spacing" textLength="222" x="546" y="291.2139">Get Config (deviceId, sinceTimestamp)</text><polygon fill="#181818" points="793,322.4219,783,326.4219,793,330.4219,789,326.4219" style="stroke:#181818;stroke-width:1.0;"/><line style="stroke:#181818;stroke-width:1.0;" x1="787" x2="1167" y1="326.4219" y2="326.4219"/><text fill="#000000" font-family="sans-serif" font-size="13" lengthAdjust="spacing" textLength="93" x="799" y="321.5654">Config response</text><!--SRC=[ZP71QiCm44Jl-eh59njI33tsq4DJA3w49jW_iB6siOWZ2McJ54h_lNPa9wvjqjw4HlDsTcJHiIgLHSqGPPh9QQmX9tTI9KN23kLNQYzXHTxZhX4bCcxHqrN9AvJc34jJrrIoCde4M6sA0bwSsPERHozhHPhdjG2FX9Z6X8VdIJfuWlLxNZHXz8VQGPpAY-xJht38v7TQNhH4JBm3tdIdXfnfIP-0MiAQd5UUWIk2W8EsbddaSFystt5RAr_rFZOGea5iWn87PG4RapycJSvVW478hhS9KumVp7foDex-uUX-e76y4L-BzKgNLAW3USQ3JUurVNJODdWhl2V-rVTmNWzTm6ZoFUfjsGxZo5kZFOaV]--></g></svg>